<?xml version="1.0" encoding="UTF-8" standalone="no"?>
<!DOCTYPE svg PUBLIC "-//W3C//DTD SVG 1.1//EN" "http://www.w3.org/Graphics/SVG/1.1/DTD/svg11.dtd">
<svg width="100%" height="100%" viewBox="0 0 500 200" version="1.1" xmlns="http://www.w3.org/2000/svg" xmlns:xlink="http://www.w3.org/1999/xlink" xml:space="preserve" xmlns:serif="http://www.serif.com/" style="fill-rule:evenodd;clip-rule:evenodd;stroke-linecap:round;stroke-linejoin:round;stroke-miterlimit:1.5;">
    <g transform="matrix(0.617931,0,0,0.617931,-105.17,-6.6626)">
        <g transform="matrix(1.47975,0,0,1.47975,-84.6295,-163.278)">
            <circle cx="256.674" cy="235.363" r="75.176" style="fill:rgb(255,0,51);fill-opacity:0.2;stroke:black;stroke-width:1.09px;"/>
        </g>
        <g transform="matrix(1.33205,0,0,1.33205,-46.7196,-128.516)">
            <circle cx="256.674" cy="235.363" r="75.176" style="fill:rgb(255,0,180);fill-opacity:0.2;stroke:black;stroke-width:1.21px;"/>
        </g>
        <g transform="matrix(1.19272,0,0,1.19272,-10.9556,-95.7215)">
            <circle cx="256.674" cy="235.363" r="75.176" style="fill:rgb(189,0,255);fill-opacity:0.2;stroke:black;stroke-width:1.36px;"/>
        </g>
        <g transform="matrix(1.19272,0,0,1.19272,-10.9556,-95.7215)">
            <circle cx="256.674" cy="235.363" r="75.176" style="fill:none;stroke:black;stroke-width:1.36px;"/>
        </g>
        <g transform="matrix(1.07367,0,0,1.07367,19.6008,-67.7022)">
            <circle cx="256.674" cy="235.363" r="75.176" style="fill:rgb(77,0,255);fill-opacity:0.2;stroke:black;stroke-width:1.51px;"/>
        </g>
        <g transform="matrix(0.961362,0,0,0.961362,48.4275,-41.2689)">
            <circle cx="256.674" cy="235.363" r="75.176" style="fill:rgb(0,57,255);fill-opacity:0.2;stroke:black;stroke-width:1.68px;"/>
        </g>
        <g transform="matrix(198.563,0,0,181.89,224.982,247.214)">
            <path d="M0.615,-0.11C0.615,-0.105 0.612,-0.098 0.605,-0.09C0.545,-0.019 0.465,0.017 0.366,0.017C0.265,0.017 0.182,-0.018 0.119,-0.087C0.058,-0.154 0.027,-0.239 0.027,-0.341C0.027,-0.44 0.057,-0.524 0.117,-0.593C0.18,-0.665 0.26,-0.701 0.357,-0.701C0.462,-0.701 0.545,-0.669 0.605,-0.604C0.611,-0.597 0.615,-0.59 0.615,-0.585C0.615,-0.579 0.603,-0.556 0.581,-0.516C0.558,-0.476 0.544,-0.454 0.538,-0.449C0.535,-0.447 0.532,-0.445 0.528,-0.445C0.527,-0.445 0.519,-0.452 0.504,-0.465C0.486,-0.48 0.469,-0.493 0.452,-0.501C0.426,-0.514 0.4,-0.521 0.372,-0.521C0.324,-0.521 0.286,-0.503 0.257,-0.467C0.231,-0.434 0.218,-0.393 0.218,-0.344C0.218,-0.295 0.231,-0.253 0.257,-0.22C0.286,-0.183 0.324,-0.165 0.372,-0.165C0.4,-0.165 0.427,-0.171 0.453,-0.184C0.469,-0.192 0.486,-0.203 0.503,-0.218C0.518,-0.23 0.526,-0.236 0.527,-0.236C0.531,-0.236 0.534,-0.235 0.537,-0.231C0.542,-0.225 0.556,-0.205 0.58,-0.17C0.603,-0.134 0.615,-0.114 0.615,-0.11Z" style="fill-rule:nonzero;"/>
        </g>
        <g transform="matrix(0.696419,0,0,0.797498,113.839,4.0193)">
            <g transform="matrix(179.065,0,0,179.065,329.04,267.327)">
                <path d="M0.511,-0.24C0.511,-0.166 0.489,-0.106 0.443,-0.06C0.398,-0.013 0.338,0.01 0.264,0.01C0.193,0.01 0.134,-0.013 0.087,-0.059C0.041,-0.104 0.018,-0.163 0.018,-0.234C0.018,-0.31 0.04,-0.371 0.084,-0.418C0.129,-0.465 0.189,-0.489 0.264,-0.489C0.338,-0.489 0.397,-0.466 0.443,-0.42C0.488,-0.374 0.511,-0.314 0.511,-0.24ZM0.351,-0.24C0.351,-0.266 0.343,-0.289 0.327,-0.308C0.311,-0.328 0.291,-0.338 0.265,-0.338C0.239,-0.338 0.218,-0.328 0.202,-0.308C0.186,-0.289 0.178,-0.266 0.178,-0.24C0.178,-0.214 0.186,-0.191 0.202,-0.172C0.218,-0.152 0.239,-0.142 0.265,-0.142C0.291,-0.142 0.312,-0.152 0.328,-0.172C0.343,-0.191 0.351,-0.214 0.351,-0.24Z" style="fill-rule:nonzero;"/>
            </g>
            <g transform="matrix(179.065,0,0,179.065,423.731,267.327)">
                <path d="M0.527,-0.014C0.527,-0.005 0.522,-0 0.513,0.001C0.504,0.002 0.48,0.003 0.442,0.003C0.401,0.003 0.375,0.002 0.366,-0C0.356,-0.002 0.351,-0.009 0.351,-0.02C0.351,-0.035 0.352,-0.058 0.353,-0.089C0.354,-0.12 0.354,-0.144 0.354,-0.159C0.354,-0.171 0.354,-0.189 0.353,-0.213C0.352,-0.237 0.352,-0.255 0.352,-0.267C0.352,-0.312 0.333,-0.334 0.294,-0.334C0.281,-0.334 0.266,-0.328 0.25,-0.317C0.231,-0.305 0.222,-0.293 0.222,-0.281L0.222,-0.017C0.222,-0.006 0.217,-0 0.207,0.001C0.196,0.002 0.172,0.003 0.137,0.003C0.099,0.003 0.074,0.002 0.063,-0C0.053,-0.002 0.048,-0.007 0.048,-0.016C0.048,-0.042 0.048,-0.08 0.048,-0.131C0.049,-0.182 0.049,-0.22 0.049,-0.246C0.049,-0.327 0.042,-0.391 0.03,-0.437C0.029,-0.44 0.029,-0.442 0.029,-0.444C0.029,-0.45 0.031,-0.453 0.036,-0.455C0.057,-0.457 0.084,-0.461 0.118,-0.466C0.17,-0.476 0.199,-0.481 0.206,-0.481C0.209,-0.481 0.212,-0.47 0.214,-0.448C0.216,-0.426 0.219,-0.415 0.222,-0.415C0.219,-0.415 0.236,-0.426 0.275,-0.449C0.313,-0.472 0.347,-0.483 0.376,-0.483C0.417,-0.483 0.452,-0.473 0.479,-0.454C0.51,-0.431 0.526,-0.4 0.526,-0.36L0.526,-0.204C0.526,-0.183 0.526,-0.151 0.526,-0.109C0.527,-0.067 0.527,-0.035 0.527,-0.014Z" style="fill-rule:nonzero;"/>
            </g>
            <g transform="matrix(179.065,0,0,179.065,525.242,267.327)">
                <path d="M0.365,-0.321C0.364,-0.321 0.355,-0.324 0.335,-0.329C0.316,-0.334 0.3,-0.337 0.288,-0.337C0.259,-0.337 0.236,-0.328 0.219,-0.311C0.201,-0.293 0.193,-0.27 0.193,-0.241C0.193,-0.211 0.202,-0.188 0.221,-0.171C0.24,-0.154 0.265,-0.145 0.295,-0.145C0.309,-0.145 0.325,-0.149 0.343,-0.156C0.361,-0.163 0.37,-0.167 0.369,-0.167C0.374,-0.167 0.381,-0.146 0.39,-0.105C0.398,-0.067 0.401,-0.042 0.401,-0.03C0.401,-0.017 0.381,-0.007 0.341,0.002C0.31,0.009 0.284,0.012 0.265,0.012C0.194,0.012 0.134,-0.012 0.088,-0.06C0.041,-0.108 0.018,-0.168 0.018,-0.24C0.018,-0.312 0.041,-0.372 0.088,-0.42C0.135,-0.469 0.194,-0.493 0.265,-0.493C0.314,-0.493 0.356,-0.483 0.393,-0.462C0.402,-0.457 0.406,-0.453 0.406,-0.449C0.406,-0.444 0.401,-0.425 0.391,-0.391C0.382,-0.358 0.376,-0.338 0.373,-0.332C0.371,-0.325 0.368,-0.321 0.365,-0.321Z" style="fill-rule:nonzero;"/>
            </g>
            <g transform="matrix(179.065,0,0,179.065,599.736,267.327)">
                <path d="M0.489,-0.265C0.489,-0.232 0.478,-0.214 0.457,-0.209C0.453,-0.208 0.42,-0.205 0.356,-0.198C0.318,-0.194 0.26,-0.189 0.184,-0.183C0.189,-0.162 0.202,-0.146 0.226,-0.135C0.244,-0.126 0.266,-0.121 0.29,-0.121C0.319,-0.121 0.348,-0.129 0.377,-0.145C0.39,-0.152 0.402,-0.16 0.415,-0.168C0.421,-0.165 0.433,-0.148 0.449,-0.118C0.465,-0.088 0.473,-0.069 0.473,-0.061C0.473,-0.059 0.471,-0.055 0.466,-0.05C0.426,-0.007 0.364,0.014 0.281,0.014C0.203,0.014 0.141,-0.008 0.093,-0.054C0.044,-0.1 0.02,-0.161 0.02,-0.238C0.02,-0.313 0.042,-0.374 0.085,-0.422C0.13,-0.471 0.19,-0.496 0.264,-0.496C0.327,-0.496 0.38,-0.473 0.423,-0.428C0.467,-0.382 0.489,-0.328 0.489,-0.265ZM0.318,-0.295C0.318,-0.315 0.311,-0.333 0.296,-0.348C0.282,-0.363 0.265,-0.371 0.245,-0.371C0.225,-0.371 0.208,-0.362 0.194,-0.345C0.182,-0.329 0.176,-0.311 0.176,-0.289C0.176,-0.28 0.18,-0.276 0.189,-0.276C0.214,-0.276 0.251,-0.28 0.302,-0.287C0.313,-0.289 0.318,-0.291 0.318,-0.295Z" style="fill-rule:nonzero;"/>
            </g>
            <g transform="matrix(179.065,0,0,179.065,689.443,267.327)">
                <path d="M0.527,-0.014C0.527,-0.005 0.522,-0 0.513,0.001C0.504,0.002 0.48,0.003 0.442,0.003C0.401,0.003 0.375,0.002 0.366,-0C0.356,-0.002 0.351,-0.009 0.351,-0.02C0.351,-0.035 0.352,-0.058 0.353,-0.089C0.354,-0.12 0.354,-0.144 0.354,-0.159C0.354,-0.171 0.354,-0.189 0.353,-0.213C0.352,-0.237 0.352,-0.255 0.352,-0.267C0.352,-0.312 0.333,-0.334 0.294,-0.334C0.281,-0.334 0.266,-0.328 0.25,-0.317C0.231,-0.305 0.222,-0.293 0.222,-0.281L0.222,-0.017C0.222,-0.006 0.217,-0 0.207,0.001C0.196,0.002 0.172,0.003 0.137,0.003C0.099,0.003 0.074,0.002 0.063,-0C0.053,-0.002 0.048,-0.007 0.048,-0.016C0.048,-0.042 0.048,-0.08 0.048,-0.131C0.049,-0.182 0.049,-0.22 0.049,-0.246C0.049,-0.327 0.042,-0.391 0.03,-0.437C0.029,-0.44 0.029,-0.442 0.029,-0.444C0.029,-0.45 0.031,-0.453 0.036,-0.455C0.057,-0.457 0.084,-0.461 0.118,-0.466C0.17,-0.476 0.199,-0.481 0.206,-0.481C0.209,-0.481 0.212,-0.47 0.214,-0.448C0.216,-0.426 0.219,-0.415 0.222,-0.415C0.219,-0.415 0.236,-0.426 0.275,-0.449C0.313,-0.472 0.347,-0.483 0.376,-0.483C0.417,-0.483 0.452,-0.473 0.479,-0.454C0.51,-0.431 0.526,-0.4 0.526,-0.36L0.526,-0.204C0.526,-0.183 0.526,-0.151 0.526,-0.109C0.527,-0.067 0.527,-0.035 0.527,-0.014Z" style="fill-rule:nonzero;"/>
            </g>
            <g transform="matrix(179.065,0,0,179.065,790.954,267.327)">
                <path d="M0.368,-0.143C0.368,-0.133 0.367,-0.118 0.365,-0.099C0.362,-0.079 0.361,-0.064 0.361,-0.055C0.361,-0.046 0.36,-0.04 0.358,-0.037C0.356,-0.035 0.351,-0.031 0.342,-0.026C0.3,-0.003 0.253,0.009 0.202,0.009C0.108,0.009 0.061,-0.027 0.061,-0.099C0.061,-0.121 0.062,-0.153 0.063,-0.196C0.065,-0.239 0.066,-0.271 0.066,-0.293C0.066,-0.307 0.058,-0.314 0.041,-0.314L0.035,-0.314C0.032,-0.314 0.03,-0.314 0.028,-0.314C0.016,-0.314 0.01,-0.318 0.01,-0.327C0.01,-0.332 0.01,-0.34 0.011,-0.351C0.012,-0.362 0.012,-0.37 0.012,-0.375C0.012,-0.382 0.012,-0.392 0.011,-0.406C0.01,-0.42 0.01,-0.431 0.01,-0.438C0.01,-0.444 0.02,-0.448 0.041,-0.448C0.053,-0.449 0.059,-0.452 0.06,-0.458C0.062,-0.47 0.063,-0.49 0.062,-0.517C0.061,-0.559 0.06,-0.579 0.06,-0.577C0.06,-0.614 0.064,-0.633 0.071,-0.633C0.08,-0.633 0.092,-0.631 0.108,-0.627C0.127,-0.623 0.14,-0.621 0.147,-0.62C0.164,-0.618 0.189,-0.615 0.222,-0.611C0.23,-0.61 0.234,-0.607 0.234,-0.603C0.234,-0.59 0.233,-0.57 0.231,-0.543C0.229,-0.517 0.228,-0.497 0.228,-0.484C0.228,-0.468 0.233,-0.46 0.242,-0.46C0.254,-0.46 0.271,-0.46 0.294,-0.461C0.317,-0.462 0.334,-0.463 0.346,-0.463C0.353,-0.463 0.357,-0.46 0.357,-0.456C0.357,-0.448 0.356,-0.437 0.354,-0.422C0.353,-0.407 0.352,-0.396 0.352,-0.388L0.353,-0.32C0.353,-0.313 0.348,-0.31 0.339,-0.31L0.273,-0.311L0.237,-0.311C0.232,-0.311 0.229,-0.304 0.229,-0.29L0.229,-0.255C0.23,-0.239 0.23,-0.228 0.23,-0.22C0.23,-0.193 0.233,-0.174 0.239,-0.164C0.248,-0.15 0.265,-0.143 0.291,-0.143C0.299,-0.143 0.311,-0.144 0.326,-0.148C0.341,-0.152 0.352,-0.154 0.358,-0.154C0.365,-0.154 0.368,-0.15 0.368,-0.143Z" style="fill-rule:nonzero;"/>
            </g>
            <g transform="matrix(179.065,0,0,179.065,858.628,267.327)">
                <path d="M0.365,-0.304C0.365,-0.292 0.358,-0.285 0.344,-0.285C0.338,-0.285 0.329,-0.286 0.317,-0.286C0.305,-0.287 0.296,-0.288 0.291,-0.288C0.264,-0.288 0.245,-0.283 0.235,-0.275C0.226,-0.266 0.221,-0.249 0.221,-0.224C0.221,-0.21 0.221,-0.188 0.221,-0.16C0.222,-0.131 0.222,-0.11 0.222,-0.096C0.222,-0.087 0.223,-0.073 0.224,-0.054C0.225,-0.035 0.226,-0.021 0.226,-0.012C0.226,-0.004 0.221,-0 0.21,0.001C0.194,0.002 0.17,0.003 0.138,0.003C0.107,0.003 0.083,0.002 0.064,-0C0.053,-0.001 0.048,-0.007 0.048,-0.016C0.048,-0.042 0.048,-0.081 0.048,-0.133C0.049,-0.185 0.049,-0.224 0.049,-0.25C0.049,-0.326 0.042,-0.389 0.028,-0.439C0.027,-0.442 0.027,-0.444 0.027,-0.446C0.027,-0.451 0.029,-0.454 0.034,-0.456C0.052,-0.458 0.078,-0.462 0.113,-0.467C0.164,-0.477 0.191,-0.482 0.192,-0.482C0.198,-0.482 0.202,-0.472 0.204,-0.451C0.205,-0.431 0.208,-0.42 0.212,-0.42C0.208,-0.42 0.221,-0.429 0.252,-0.446C0.284,-0.463 0.314,-0.472 0.343,-0.472C0.361,-0.472 0.37,-0.468 0.37,-0.46C0.37,-0.451 0.369,-0.437 0.367,-0.42C0.365,-0.401 0.364,-0.388 0.364,-0.38C0.364,-0.37 0.364,-0.358 0.364,-0.342C0.365,-0.323 0.365,-0.31 0.365,-0.304Z" style="fill-rule:nonzero;"/>
            </g>
            <g transform="matrix(179.065,0,0,179.065,926.827,267.327)">
                <path d="M0.235,-0.587C0.235,-0.53 0.203,-0.502 0.139,-0.502C0.112,-0.502 0.089,-0.509 0.071,-0.523C0.052,-0.539 0.042,-0.56 0.042,-0.587C0.042,-0.612 0.052,-0.633 0.072,-0.649C0.091,-0.664 0.113,-0.672 0.139,-0.672C0.165,-0.672 0.187,-0.664 0.205,-0.649C0.225,-0.633 0.235,-0.612 0.235,-0.587ZM0.222,-0.224C0.222,-0.2 0.223,-0.165 0.224,-0.118C0.225,-0.071 0.225,-0.036 0.225,-0.012C0.225,-0.005 0.221,-0.001 0.213,-0C0.202,0.002 0.177,0.003 0.138,0.003C0.099,0.003 0.074,0.002 0.063,-0C0.056,-0.001 0.051,-0.003 0.05,-0.006C0.049,-0.008 0.049,-0.013 0.049,-0.021C0.049,-0.043 0.049,-0.077 0.05,-0.122C0.051,-0.167 0.052,-0.201 0.052,-0.224C0.052,-0.317 0.048,-0.39 0.041,-0.445C0.04,-0.45 0.04,-0.453 0.04,-0.455C0.04,-0.462 0.044,-0.465 0.053,-0.465C0.062,-0.465 0.076,-0.464 0.095,-0.462C0.114,-0.46 0.128,-0.459 0.137,-0.459C0.147,-0.459 0.161,-0.46 0.18,-0.461C0.199,-0.463 0.213,-0.464 0.222,-0.464C0.23,-0.464 0.234,-0.461 0.234,-0.454C0.234,-0.453 0.234,-0.45 0.233,-0.445C0.226,-0.381 0.222,-0.308 0.222,-0.224Z" style="fill-rule:nonzero;"/>
            </g>
        </g>
        <g transform="matrix(1.19272,0,0,1.19272,435.986,-236.122)">
            <g transform="matrix(114.754,0,0,114.754,296.721,380.328)">
                <path d="M0.723,-0.342C0.723,-0.255 0.7,-0.181 0.652,-0.118C0.604,-0.054 0.538,-0.013 0.455,0.005C0.471,0.038 0.496,0.069 0.528,0.096C0.531,0.098 0.532,0.101 0.532,0.103C0.532,0.116 0.492,0.122 0.412,0.122C0.353,0.122 0.317,0.12 0.303,0.115C0.296,0.113 0.291,0.107 0.289,0.097C0.285,0.078 0.284,0.047 0.285,0.003C0.205,-0.017 0.142,-0.059 0.095,-0.123C0.05,-0.185 0.027,-0.258 0.027,-0.342C0.027,-0.443 0.059,-0.528 0.125,-0.597C0.191,-0.668 0.274,-0.703 0.375,-0.703C0.475,-0.703 0.558,-0.668 0.625,-0.597C0.69,-0.527 0.723,-0.442 0.723,-0.342ZM0.538,-0.343C0.538,-0.393 0.524,-0.435 0.495,-0.468C0.464,-0.503 0.424,-0.521 0.375,-0.521C0.324,-0.521 0.284,-0.504 0.254,-0.469C0.226,-0.436 0.212,-0.394 0.212,-0.342C0.212,-0.289 0.226,-0.247 0.253,-0.215C0.282,-0.181 0.323,-0.164 0.375,-0.164C0.425,-0.164 0.466,-0.181 0.496,-0.216C0.524,-0.25 0.538,-0.292 0.538,-0.343Z" style="fill-rule:nonzero;"/>
            </g>
            <g transform="matrix(114.754,0,0,114.754,382.899,380.328)">
                <path d="M0.494,0.008C0.466,0.008 0.429,0.008 0.384,0.006C0.326,0.005 0.289,0.004 0.275,0.004L0.129,0.002C0.114,0.002 0.093,0.002 0.066,-0C0.056,-0.002 0.052,-0.007 0.052,-0.015C0.052,-0.051 0.052,-0.104 0.053,-0.175C0.055,-0.245 0.055,-0.299 0.055,-0.334C0.055,-0.372 0.054,-0.428 0.052,-0.504C0.049,-0.579 0.048,-0.636 0.048,-0.673C0.048,-0.681 0.053,-0.684 0.063,-0.684C0.073,-0.684 0.087,-0.684 0.107,-0.683C0.126,-0.682 0.14,-0.681 0.15,-0.681C0.161,-0.681 0.177,-0.682 0.198,-0.683C0.219,-0.684 0.235,-0.685 0.246,-0.685C0.25,-0.685 0.253,-0.681 0.252,-0.675L0.252,-0.669C0.248,-0.608 0.244,-0.516 0.239,-0.393L0.238,-0.264C0.238,-0.222 0.238,-0.192 0.239,-0.173C0.239,-0.169 0.239,-0.165 0.24,-0.161C0.24,-0.157 0.243,-0.155 0.247,-0.154L0.26,-0.154C0.289,-0.154 0.333,-0.155 0.391,-0.158C0.45,-0.162 0.494,-0.163 0.523,-0.163C0.532,-0.163 0.536,-0.159 0.536,-0.152C0.536,-0.096 0.532,-0.048 0.524,-0.008C0.522,0.001 0.519,0.006 0.514,0.007C0.512,0.008 0.505,0.008 0.494,0.008Z" style="fill-rule:nonzero;"/>
            </g>
        </g>
    </g>
</svg>
